<mxfile host="app.diagrams.net" modified="2022-12-11T04:23:01.193Z" agent="5.0 (X11; Linux x86_64) AppleWebKit/537.36 (KHTML, like Gecko) Chrome/103.0.0.0 Safari/537.36" etag="5lYecBv4R9ug7msyv8zQ" version="20.6.2" type="github">
  <diagram id="kgpKYQtTHZ0yAKxKKP6v" name="Page-1">
    <mxGraphModel dx="1422" dy="749" grid="1" gridSize="10" guides="1" tooltips="1" connect="1" arrows="1" fold="1" page="1" pageScale="1" pageWidth="850" pageHeight="1100" math="0" shadow="0">
      <root>
        <mxCell id="0" />
        <mxCell id="1" parent="0" />
        <mxCell id="4ZVYAhuGB29EE994HRAR-4" value="" style="whiteSpace=wrap;html=1;aspect=fixed;strokeColor=#050505;" vertex="1" parent="1">
          <mxGeometry x="40" y="160" width="710" height="710" as="geometry" />
        </mxCell>
        <object label="" 选中用户修改密码="" id="4ZVYAhuGB29EE994HRAR-9">
          <mxCell style="edgeStyle=orthogonalEdgeStyle;curved=1;orthogonalLoop=1;jettySize=auto;html=1;exitX=1;exitY=0.5;exitDx=0;exitDy=0;" edge="1" parent="1" source="4ZVYAhuGB29EE994HRAR-5" target="4ZVYAhuGB29EE994HRAR-6">
            <mxGeometry relative="1" as="geometry" />
          </mxCell>
        </object>
        <mxCell id="4ZVYAhuGB29EE994HRAR-17" value="选择用户修改密码" style="edgeLabel;html=1;align=center;verticalAlign=middle;resizable=0;points=[];" vertex="1" connectable="0" parent="4ZVYAhuGB29EE994HRAR-9">
          <mxGeometry x="0.2235" y="3" relative="1" as="geometry">
            <mxPoint as="offset" />
          </mxGeometry>
        </mxCell>
        <mxCell id="4ZVYAhuGB29EE994HRAR-5" value="用户" style="whiteSpace=wrap;html=1;aspect=fixed;" vertex="1" parent="1">
          <mxGeometry x="40" y="350" width="80" height="80" as="geometry" />
        </mxCell>
        <mxCell id="4ZVYAhuGB29EE994HRAR-10" value="发送用户名和密码" style="edgeStyle=orthogonalEdgeStyle;curved=1;orthogonalLoop=1;jettySize=auto;html=1;" edge="1" parent="1" source="4ZVYAhuGB29EE994HRAR-6" target="4ZVYAhuGB29EE994HRAR-8">
          <mxGeometry relative="1" as="geometry" />
        </mxCell>
        <mxCell id="4ZVYAhuGB29EE994HRAR-6" value="前端界面" style="ellipse;whiteSpace=wrap;html=1;aspect=fixed;" vertex="1" parent="1">
          <mxGeometry x="250" y="350" width="80" height="80" as="geometry" />
        </mxCell>
        <mxCell id="4ZVYAhuGB29EE994HRAR-7" value="恶意进程" style="ellipse;whiteSpace=wrap;html=1;aspect=fixed;" vertex="1" parent="1">
          <mxGeometry x="250" y="510" width="80" height="80" as="geometry" />
        </mxCell>
        <mxCell id="4ZVYAhuGB29EE994HRAR-8" value="后端Dbus接口" style="ellipse;whiteSpace=wrap;html=1;aspect=fixed;" vertex="1" parent="1">
          <mxGeometry x="500" y="350" width="80" height="80" as="geometry" />
        </mxCell>
        <mxCell id="4ZVYAhuGB29EE994HRAR-15" value="" style="endArrow=none;dashed=1;html=1;dashPattern=1 3;strokeWidth=2;curved=1;strokeColor=#FF1008;" edge="1" parent="1">
          <mxGeometry width="50" height="50" relative="1" as="geometry">
            <mxPoint x="150" y="540" as="sourcePoint" />
            <mxPoint x="150" y="290" as="targetPoint" />
            <Array as="points">
              <mxPoint x="150" y="540" />
              <mxPoint x="190" y="450" />
              <mxPoint x="190" y="340" />
              <mxPoint x="150" y="290" />
            </Array>
          </mxGeometry>
        </mxCell>
        <mxCell id="4ZVYAhuGB29EE994HRAR-19" value="TA01" style="rounded=0;whiteSpace=wrap;html=1;fillColor=#f8cecc;strokeColor=#b85450;" vertex="1" parent="1">
          <mxGeometry x="270" y="500" width="40" height="20" as="geometry" />
        </mxCell>
        <mxCell id="4ZVYAhuGB29EE994HRAR-23" value="" style="endArrow=classic;html=1;strokeColor=#000000;rounded=0;" edge="1" parent="1" source="4ZVYAhuGB29EE994HRAR-7" target="4ZVYAhuGB29EE994HRAR-8">
          <mxGeometry width="50" height="50" relative="1" as="geometry">
            <mxPoint x="480" y="570" as="sourcePoint" />
            <mxPoint x="510" y="420" as="targetPoint" />
            <Array as="points" />
          </mxGeometry>
        </mxCell>
        <mxCell id="4ZVYAhuGB29EE994HRAR-28" value="恶意调用" style="edgeLabel;html=1;align=center;verticalAlign=middle;resizable=0;points=[];" vertex="1" connectable="0" parent="4ZVYAhuGB29EE994HRAR-23">
          <mxGeometry x="0.2079" y="-4" relative="1" as="geometry">
            <mxPoint as="offset" />
          </mxGeometry>
        </mxCell>
        <mxCell id="4ZVYAhuGB29EE994HRAR-26" value="" style="endArrow=none;dashed=1;html=1;dashPattern=1 3;strokeWidth=2;strokeColor=#FF3F21;curved=1;" edge="1" parent="1">
          <mxGeometry width="50" height="50" relative="1" as="geometry">
            <mxPoint x="380" y="550" as="sourcePoint" />
            <mxPoint x="370" y="290" as="targetPoint" />
            <Array as="points">
              <mxPoint x="380" y="550" />
              <mxPoint x="420" y="380" />
              <mxPoint x="370" y="290" />
            </Array>
          </mxGeometry>
        </mxCell>
        <mxCell id="4ZVYAhuGB29EE994HRAR-30" value="用户密码" style="whiteSpace=wrap;html=1;aspect=fixed;strokeColor=#050505;dashed=1;" vertex="1" parent="1">
          <mxGeometry x="670" y="350" width="80" height="80" as="geometry" />
        </mxCell>
        <mxCell id="4ZVYAhuGB29EE994HRAR-32" value="" style="endArrow=classic;html=1;strokeColor=#000000;curved=1;exitX=1;exitY=0.5;exitDx=0;exitDy=0;entryX=0;entryY=0.5;entryDx=0;entryDy=0;" edge="1" parent="1" source="4ZVYAhuGB29EE994HRAR-8" target="4ZVYAhuGB29EE994HRAR-30">
          <mxGeometry width="50" height="50" relative="1" as="geometry">
            <mxPoint x="600" y="430" as="sourcePoint" />
            <mxPoint x="650" y="380" as="targetPoint" />
          </mxGeometry>
        </mxCell>
        <mxCell id="4ZVYAhuGB29EE994HRAR-35" value="修改" style="edgeLabel;html=1;align=center;verticalAlign=middle;resizable=0;points=[];" vertex="1" connectable="0" parent="4ZVYAhuGB29EE994HRAR-32">
          <mxGeometry x="-0.2222" y="-4" relative="1" as="geometry">
            <mxPoint as="offset" />
          </mxGeometry>
        </mxCell>
        <mxCell id="4ZVYAhuGB29EE994HRAR-36" value="C01" style="rounded=0;whiteSpace=wrap;html=1;strokeColor=#82b366;fillColor=#d5e8d4;" vertex="1" parent="1">
          <mxGeometry x="525" y="340" width="35" height="20" as="geometry" />
        </mxCell>
        <mxCell id="4ZVYAhuGB29EE994HRAR-145" value="Treat Actors" style="rounded=0;whiteSpace=wrap;html=1;strokeColor=#b85450;fillColor=#f8cecc;" vertex="1" parent="1">
          <mxGeometry x="100" y="640" width="140" height="30" as="geometry" />
        </mxCell>
        <mxCell id="4ZVYAhuGB29EE994HRAR-147" value="ID" style="rounded=0;whiteSpace=wrap;html=1;strokeColor=#b85450;fillColor=#f8cecc;" vertex="1" parent="1">
          <mxGeometry x="100" y="670" width="70" height="30" as="geometry" />
        </mxCell>
        <mxCell id="4ZVYAhuGB29EE994HRAR-152" value="Description" style="rounded=0;whiteSpace=wrap;html=1;strokeColor=#b85450;fillColor=#f8cecc;" vertex="1" parent="1">
          <mxGeometry x="170" y="670" width="70" height="30" as="geometry" />
        </mxCell>
        <mxCell id="4ZVYAhuGB29EE994HRAR-154" value="TA01" style="rounded=0;whiteSpace=wrap;html=1;strokeColor=#050505;" vertex="1" parent="1">
          <mxGeometry x="100" y="700" width="70" height="30" as="geometry" />
        </mxCell>
        <mxCell id="4ZVYAhuGB29EE994HRAR-155" value="恶意进程" style="rounded=0;whiteSpace=wrap;html=1;strokeColor=#050505;" vertex="1" parent="1">
          <mxGeometry x="170" y="700" width="70" height="30" as="geometry" />
        </mxCell>
        <mxCell id="4ZVYAhuGB29EE994HRAR-161" value="Security Controls" style="rounded=0;whiteSpace=wrap;html=1;strokeColor=#82b366;fillColor=#d5e8d4;" vertex="1" parent="1">
          <mxGeometry x="290" y="640" width="180" height="30" as="geometry" />
        </mxCell>
        <mxCell id="4ZVYAhuGB29EE994HRAR-162" value="ID" style="rounded=0;whiteSpace=wrap;html=1;strokeColor=#82b366;fillColor=#d5e8d4;" vertex="1" parent="1">
          <mxGeometry x="290" y="670" width="90" height="30" as="geometry" />
        </mxCell>
        <mxCell id="4ZVYAhuGB29EE994HRAR-166" value="Description" style="rounded=0;whiteSpace=wrap;html=1;strokeColor=#82b366;fillColor=#d5e8d4;" vertex="1" parent="1">
          <mxGeometry x="380" y="670" width="90" height="30" as="geometry" />
        </mxCell>
        <mxCell id="4ZVYAhuGB29EE994HRAR-167" value="C01" style="rounded=0;whiteSpace=wrap;html=1;strokeColor=#050505;" vertex="1" parent="1">
          <mxGeometry x="290" y="700" width="90" height="30" as="geometry" />
        </mxCell>
        <mxCell id="4ZVYAhuGB29EE994HRAR-168" value="用户名和密码校验" style="rounded=0;whiteSpace=wrap;html=1;strokeColor=#050505;" vertex="1" parent="1">
          <mxGeometry x="380" y="700" width="90" height="30" as="geometry" />
        </mxCell>
        <mxCell id="4ZVYAhuGB29EE994HRAR-181" value="Assests" style="rounded=0;whiteSpace=wrap;html=1;strokeColor=#82b366;fillColor=#d5e8d4;" vertex="1" parent="1">
          <mxGeometry x="500" y="640" width="180" height="30" as="geometry" />
        </mxCell>
        <mxCell id="4ZVYAhuGB29EE994HRAR-182" value="ID" style="rounded=0;whiteSpace=wrap;html=1;strokeColor=#82b366;fillColor=#d5e8d4;" vertex="1" parent="1">
          <mxGeometry x="500" y="670" width="90" height="30" as="geometry" />
        </mxCell>
        <mxCell id="4ZVYAhuGB29EE994HRAR-183" value="Description" style="rounded=0;whiteSpace=wrap;html=1;strokeColor=#82b366;fillColor=#d5e8d4;" vertex="1" parent="1">
          <mxGeometry x="590" y="670" width="90" height="30" as="geometry" />
        </mxCell>
        <mxCell id="4ZVYAhuGB29EE994HRAR-184" value="用户密码" style="rounded=0;whiteSpace=wrap;html=1;strokeColor=#050505;" vertex="1" parent="1">
          <mxGeometry x="590" y="700" width="90" height="30" as="geometry" />
        </mxCell>
        <mxCell id="4ZVYAhuGB29EE994HRAR-185" value="A01" style="rounded=0;whiteSpace=wrap;html=1;strokeColor=#050505;" vertex="1" parent="1">
          <mxGeometry x="500" y="700" width="90" height="30" as="geometry" />
        </mxCell>
        <mxCell id="4ZVYAhuGB29EE994HRAR-186" value="A01" style="rounded=0;whiteSpace=wrap;html=1;strokeColor=#d6b656;fillColor=#fff2cc;" vertex="1" parent="1">
          <mxGeometry x="692.5" y="360" width="35" height="20" as="geometry" />
        </mxCell>
      </root>
    </mxGraphModel>
  </diagram>
</mxfile>
